<?xml version="1.0" encoding="utf-8"?>
<!-- Generator: Adobe Illustrator 16.0.0, SVG Export Plug-In . SVG Version: 6.00 Build 0)  -->
<!DOCTYPE svg PUBLIC "-//W3C//DTD SVG 1.1//EN" "http://www.w3.org/Graphics/SVG/1.1/DTD/svg11.dtd">
<svg version="1.1" id="Layer_1" focusable="false" xmlns="http://www.w3.org/2000/svg" xmlns:xlink="http://www.w3.org/1999/xlink"
	 x="0px" y="0px" width="595.281px" height="841.891px" viewBox="0 0 595.281 841.891" enable-background="new 0 0 595.281 841.891"
	 xml:space="preserve">
<path d="M339.496,384.128c-7.705,0-13.951-6.247-13.951-13.952v-55.808c0-7.705,6.246-13.952,13.951-13.952h114.26
	c-37.199-50.99-97.406-84.099-165.417-84.099c-113.107,0-204.628,91.54-204.628,204.628c0,113.108,91.539,204.628,204.628,204.628
	c52.032,0,99.493-19.375,135.577-51.305c5.51-4.874,13.867-4.591,19.068,0.61l39.492,39.492c5.658,5.657,5.385,14.88-0.543,20.253
	c-51.174,46.393-119.08,74.66-193.594,74.66c-159.037,0-288-128.755-288.337-287.712C-0.336,262.393,127.023,133.77,286.197,132.614
	c85.938-0.624,163.24,36.359,216.458,95.46v-90.817c0-7.705,6.247-13.951,13.952-13.951h55.808c7.704,0,13.952,6.246,13.952,13.951
	v232.919c0,7.705-6.248,13.952-13.952,13.952H339.496L339.496,384.128z"/>
</svg>
